<?xml version="1.0" encoding="UTF-8"?>
<svg version="1.1" xmlns="http://www.w3.org/2000/svg" width="868" height="280">
<path d="M0 0 C3.2138627 1.60693135 5.16978419 2.94336169 7.375 5.75 C8.66740872 10.40267138 8.74762373 14.43355027 6.6875 18.75 C5 21 5 21 3.3203125 22.69140625 C1.34708014 26.1416439 2.28787707 28.39651253 3.1875 32.1875 C3.46980469 33.43917969 3.75210938 34.69085938 4.04296875 35.98046875 C4.51669922 37.47513672 4.51669922 37.47513672 5 39 C7.93718653 40.46859326 10.87142098 40.54616495 14.125 40.9375 C30.13771019 42.99470167 30.13771019 42.99470167 35 48 C37.45839309 52.30218791 37.59823249 57.14707134 38 62 C38.78761719 62.27972656 39.57523438 62.55945313 40.38671875 62.84765625 C65.68836957 72.15986146 90.63396987 90.26793974 103 115 C106.46643981 116.0390245 109.96549126 116.86411872 113.484375 117.70703125 C118.32423822 119.48702539 120.85247155 122.00457554 123.40625 126.4453125 C129.22179351 140.69339409 138.23056189 165.02914474 132.12890625 180.16015625 C129.97109568 182.92639865 127.62992793 184.17007742 124.47265625 185.62109375 C121.49927259 187.30027736 120.4404923 188.5608349 119.46875 191.8359375 C119.12366481 193.34405667 118.80179316 194.8576246 118.5 196.375 C112.99825992 219.17808366 99.45778636 233.94512161 80.0625 246.25 C68.76518765 252.69782296 56.5972296 256.95762139 44 260 C43.20013672 260.19899902 42.40027344 260.39799805 41.57617188 260.60302734 C26.0561843 264.26131013 10.48508948 264.39675037 -5.375 264.4375 C-6.39917023 264.4436734 -7.42334045 264.4498468 -8.47854614 264.45620728 C-25.24982779 264.52112837 -41.52959532 263.17282421 -57.75 258.6875 C-58.52964111 258.47512695 -59.30928223 258.26275391 -60.11254883 258.04394531 C-79.18178195 252.67847247 -96.13685796 244.25627592 -110 230 C-111.14082031 228.83791016 -111.14082031 228.83791016 -112.3046875 227.65234375 C-122.25448383 217.007939 -126.67356221 205.21106179 -129.86328125 191.2109375 C-131.16535369 187.53291844 -132.09689248 186.6830208 -135.4375 184.8125 C-138.77572921 182.9041548 -141.09466533 181.40195402 -143 178 C-145.41057255 160.72423009 -139.85523263 137.87934521 -131 123 C-127.44451081 119.46265106 -124.6043418 118.50639979 -119.75 117.5625 C-112.47947707 115.49105597 -109.81730214 111.48050356 -106.10546875 105.37890625 C-102.97635123 100.35722414 -99.08195455 96.25521238 -95 92 C-94.23042969 91.16726562 -93.46085937 90.33453125 -92.66796875 89.4765625 C-81.5607188 77.81305286 -67.07433297 68.40999144 -51.59375 63.640625 C-47.78925481 62.41234552 -47.78925481 62.41234552 -46.95703125 59.2578125 C-46.90933594 58.22398438 -46.86164063 57.19015625 -46.8125 56.125 C-46.21969778 50.28166382 -46.21969778 50.28166382 -43.5625 46.875 C-39.97269857 44.24831603 -37.6085099 42.74696502 -33.21875 42.1484375 C-31.83236328 41.95507812 -31.83236328 41.95507812 -30.41796875 41.7578125 C-29.45503906 41.63148437 -28.49210937 41.50515625 -27.5 41.375 C-26.53707031 41.2409375 -25.57414062 41.106875 -24.58203125 40.96875 C-17.49433992 40 -17.49433992 40 -14 40 C-13.93941406 39.27554688 -13.87882813 38.55109375 -13.81640625 37.8046875 C-13.73261719 36.83789062 -13.64882812 35.87109375 -13.5625 34.875 C-13.47871094 33.86953125 -13.39492187 32.8640625 -13.30859375 31.828125 C-13 29 -13 29 -12.125 25.625 C-11.68491174 22.72656898 -11.68491174 22.72656898 -14.375 20.25 C-15.24125 19.5075 -16.1075 18.765 -17 18 C-18.63125565 14.7374887 -18.68851113 11.5120384 -18 8 C-13.3522101 0.5063326 -8.5689162 -0.95940319 0 0 Z M-74 118 C-74.73992187 118.72960937 -75.47984375 119.45921875 -76.2421875 120.2109375 C-91.14979748 135.81462265 -98.58114392 158.64874643 -98.35131836 179.94433594 C-97.97180666 191.48043381 -94.13657824 198.16928957 -86.6875 206.625 C-69.75380071 221.58966449 -46.89564067 227.31232531 -24.875 229.125 C-23.3590625 229.2502002 -23.3590625 229.2502002 -21.8125 229.37792969 C9.95221213 231.85323327 48.25139567 230.11792648 74 209 C81.32080279 202.32993523 87.41916357 195.18460401 88.14208984 184.99780273 C88.84287574 168.50799038 86.77048801 153.76847137 79 139 C78.55914062 138.10023438 78.11828125 137.20046875 77.6640625 136.2734375 C67.33253188 116.00993823 49.94640758 102.76892878 29 95 C-6.88950837 83.83527737 -47.40284957 91.09267872 -74 118 Z " fill="#F92758" transform="translate(169,8)"/>
<path d="M0 0 C74.12121212 0 74.12121212 0 91 14 C91.64582031 14.53367187 92.29164063 15.06734375 92.95703125 15.6171875 C101.78244343 23.6542731 107.39012241 36.40201213 108.14233398 48.23999023 C108.77673897 64.65542103 107.14216597 79.95658713 96.234375 93.1328125 C93.13267169 96.35588681 90.00465204 98.93699743 86 101 C87.2024397 107.19407248 88.92710749 112.90718625 91.2734375 118.7578125 C91.59365875 119.57212234 91.91388 120.38643219 92.24380493 121.22541809 C93.28161773 123.8609916 94.32838864 126.49290982 95.375 129.125 C96.09451658 130.94964907 96.81325955 132.77460338 97.53125 134.59985352 C98.98266896 138.28817457 100.43686798 141.97537741 101.89355469 145.66162109 C104.68865443 152.73935996 107.4604038 159.82607992 110.21514893 166.9196167 C110.98854824 168.90805707 111.76634725 170.89473758 112.54443359 172.88134766 C113.00414551 174.06390137 113.46385742 175.24645508 113.9375 176.46484375 C114.33839844 177.492146 114.73929687 178.51944824 115.15234375 179.57788086 C116 182 116 182 116 184 C101.81 184 87.62 184 73 184 C68.50007744 173.87517423 68.50007744 173.87517423 67.03637695 170.12060547 C66.70535477 169.27456757 66.37433258 168.42852966 66.03327942 167.55685425 C65.68843002 166.66926422 65.34358063 165.78167419 64.98828125 164.8671875 C64.61575729 163.91345245 64.24323334 162.95971741 63.85942078 161.9770813 C62.67514376 158.9438185 61.49374666 155.90944402 60.3125 152.875 C59.53990902 150.89445499 58.76712389 148.91398569 57.99414062 146.93359375 C56.8825842 144.08545145 55.77123949 141.23722976 54.66145325 138.38839722 C50.45365578 127.58726968 46.22406732 116.79483871 42 106 C41.67 131.74 41.34 157.48 41 184 C27.47 184 13.94 184 0 184 C0 123.28 0 62.56 0 0 Z M41 37 C41 50.86 41 64.72 41 79 C48.58956934 79 54.45077964 78.18994448 60.9375 74.1875 C66.28778458 68.51295575 66.5247936 62.88656065 66.3515625 55.421875 C65.74787453 49.54597873 63.82061514 45.92465029 59.8125 41.6875 C53.45290085 37.87174051 48.48057562 37 41 37 Z " fill="#DBDBDB" transform="translate(341,48)"/>
<path d="M0 0 C14.85 0 29.7 0 45 0 C47.99213078 6.58268771 50.86707072 12.97291389 53.33203125 19.73046875 C53.6135051 20.4917659 53.89497894 21.25306305 54.1849823 22.03742981 C55.0646771 24.41938656 55.93870026 26.8033753 56.8125 29.1875 C57.41563751 30.82370714 58.01915044 32.45977594 58.62304688 34.09570312 C60.08635895 38.06222248 61.54459638 42.03057241 63 46 C65.6980186 40.08088983 68.17285019 34.11883258 70.453125 28.02734375 C70.72431152 27.30905396 70.99549805 26.59076416 71.27490234 25.85070801 C72.26948567 23.21405813 73.25948936 20.57568256 74.25 17.9375 C76.4775 12.018125 78.705 6.09875 81 0 C96.18 0 111.36 0 127 0 C125.43148438 4.70554685 123.67561521 9.03098125 121.54296875 13.4765625 C121.20355759 14.1915239 120.86414642 14.90648529 120.51445007 15.64311218 C119.7863902 17.17599104 119.0568178 18.70815226 118.3258667 20.23965454 C116.39387377 24.28797269 114.47307837 28.34160267 112.55078125 32.39453125 C112.16414307 33.20893173 111.77750488 34.02333221 111.37915039 34.8624115 C107.29416734 43.47296882 103.27410623 52.11296645 99.28125 60.76660156 C97.10597233 65.47923719 94.92583562 70.18525898 92.64453125 74.84765625 C92.30631348 75.54528076 91.9680957 76.24290527 91.61962891 76.96166992 C90.78024317 78.68463115 89.92801667 80.40132243 89.07421875 82.1171875 C87.36135979 86.71387809 87.56901104 89.87172708 89.32250977 94.4621582 C89.93373801 95.74734739 90.55750639 97.02662185 91.19140625 98.30078125 C91.52804291 99.00179962 91.86467957 99.70281799 92.21151733 100.42507935 C92.93872287 101.93659559 93.67112389 103.44562107 94.40817261 104.95236206 C96.38093204 108.98586626 98.31620604 113.03737187 100.2578125 117.0859375 C100.65574509 117.91280563 101.05367767 118.73967377 101.46366882 119.59159851 C105.41452076 127.81701602 109.19050686 136.11770821 112.9375 144.4375 C117.55413811 154.67867217 122.23646305 164.8755491 127.20874023 174.95092773 C127.58200439 175.71735596 127.95526855 176.48378418 128.33984375 177.2734375 C128.66331787 177.92747559 128.98679199 178.58151367 129.32006836 179.25537109 C130 181 130 181 130 184 C115.15 184 100.3 184 85 184 C81.86046032 177.0930127 78.82163777 170.25542982 76.046875 163.2109375 C75.70118469 162.3410318 75.35549438 161.4711261 74.99932861 160.57485962 C73.91365067 157.84258346 72.83140106 155.10897146 71.75 152.375 C70.31023444 148.73580311 68.86708535 145.09797499 67.421875 141.4609375 C67.09274109 140.62565521 66.76360718 139.79037292 66.42449951 138.92977905 C65.16696334 135.1906003 65.16696334 135.1906003 63 132 C62.65710938 132.98871094 62.31421875 133.97742188 61.9609375 134.99609375 C56.05617371 151.64670943 48.95757266 167.76566379 42 184 C27.15 184 12.3 184 -3 184 C-0.92732684 177.78198053 1.21242439 172.04596261 3.9921875 166.171875 C4.37466644 165.35273117 4.75714539 164.53358734 5.1512146 163.68962097 C5.96696962 161.94339956 6.78481848 160.19815496 7.60461426 158.4538269 C9.76012834 153.86613612 11.89896893 149.2706806 14.0390625 144.67578125 C14.46521851 143.76167984 14.89137451 142.84757843 15.33044434 141.90577698 C20.09879673 131.66493814 24.73958184 121.37118351 29.2890625 111.03125 C30.92873904 107.32034237 32.64101204 103.68733475 34.5234375 100.09375 C34.8853418 99.37453369 35.24724609 98.65531738 35.62011719 97.91430664 C36.52002789 96.14400126 37.46427003 94.39639498 38.4140625 92.65234375 C39.37084921 86.68837328 36.55939982 82.31098207 34 77 C33.44140656 75.77496689 32.88683252 74.5480944 32.3359375 73.31958008 C30.80794458 69.91548176 29.25636655 66.52280009 27.69708252 63.13293457 C26.6621235 60.88231635 25.63027555 58.63029335 24.59912109 56.37792969 C21.27434741 49.11858485 17.93917536 41.86411209 14.59107971 34.61549377 C13.11964599 31.42799542 11.65194812 28.23878428 10.1847229 25.04934692 C9.48364849 23.52818202 8.78069443 22.00788186 8.07577515 20.48849487 C7.09024381 18.36418486 6.11093263 16.23710541 5.1328125 14.109375 C4.84393661 13.49101273 4.55506073 12.87265045 4.25743103 12.23554993 C2.38568491 8.14244703 1.26234837 4.4182193 0 0 Z " fill="#DBDBDB" transform="translate(578,48)"/>
<path d="M0 0 C27.06 0 54.12 0 82 0 C82 13.2 82 26.4 82 40 C68.47 40 54.94 40 41 40 C41 50.89 41 61.78 41 73 C52.88 73 64.76 73 77 73 C77 85.87 77 98.74 77 112 C65.12 112 53.24 112 41 112 C41 122.56 41 133.12 41 144 C54.53 144 68.06 144 82 144 C82 157.2 82 170.4 82 184 C54.94 184 27.88 184 0 184 C0 123.28 0 62.56 0 0 Z " fill="#DBDBDB" transform="translate(478,48)"/>
<path d="M0 0 C15.18 0 30.36 0 46 0 C53.19917609 19.27279433 60.38769518 38.51769828 67 58 C67.32162109 57.05495605 67.64324219 56.10991211 67.97460938 55.13623047 C78.76303523 23.45691634 78.76303523 23.45691634 83.6875 9.875 C84.01363281 8.97120605 84.33976563 8.06741211 84.67578125 7.13623047 C86.87387011 1.12612989 86.87387011 1.12612989 88 0 C89.47354348 -0.09304018 90.95150591 -0.11746265 92.42797852 -0.11352539 C93.36887833 -0.11344986 94.30977814 -0.11337433 95.27919006 -0.11329651 C96.30209641 -0.10813522 97.32500275 -0.10297394 98.37890625 -0.09765625 C99.42070541 -0.0962413 100.46250458 -0.09482635 101.53587341 -0.09336853 C104.87811094 -0.0877508 108.22028257 -0.0751953 111.5625 -0.0625 C113.82226466 -0.05748728 116.08203037 -0.05292398 118.34179688 -0.04882812 C123.89455391 -0.03777561 129.44727225 -0.02102024 135 0 C133.46464948 5.02865693 131.3815627 9.63010802 129.10546875 14.3515625 C128.72180145 15.15499084 128.33813416 15.95841919 127.94284058 16.78619385 C127.1207564 18.50706775 126.29716395 20.2272218 125.47219849 21.94671631 C123.29939643 26.4764798 121.1385307 31.01193338 118.9765625 35.546875 C118.5462825 36.44876556 118.1160025 37.35065613 117.67268372 38.27987671 C114.0918064 45.79141513 110.5590976 53.32385476 107.0625 60.875 C106.39480591 62.31673584 106.39480591 62.31673584 105.71362305 63.78759766 C104.75387178 65.86354222 103.81729514 67.95028188 102.89794922 70.04443359 C101.46380573 73.18820519 99.76638947 76.10231135 97.99658203 79.06884766 C86.73238338 99.01034127 87.36275035 118.37796688 87.71246338 140.7244873 C87.78703444 146.48670845 87.76999467 152.24936933 87.76914978 158.01197815 C87.77771782 166.67690178 87.89918121 175.33346171 88 184 C74.47 184 60.94 184 47 184 C47.07927734 175.42257813 47.07927734 175.42257813 47.16015625 166.671875 C47.15578846 162.96170917 47.14628953 159.25287042 47.11914062 155.54296875 C47.07687741 149.70449536 47.04960164 143.86990114 47.13696289 138.03173828 C47.51747197 110.71444423 43.57237395 90.60083993 30.06523132 66.74391174 C26.93307583 61.16506518 24.35721441 55.33914347 21.75 49.5 C20.81060651 47.44829599 19.8694622 45.39739178 18.92578125 43.34765625 C18.45736816 42.32816895 17.98895508 41.30868164 17.50634766 40.25830078 C15.84481909 36.66433639 14.1642716 33.07965619 12.48046875 29.49609375 C11.58872019 27.59338765 10.69733027 25.69051392 9.80603027 23.78759766 C8.96561787 21.99739521 8.12010299 20.20959087 7.27441406 18.421875 C6.75975586 17.32230469 6.24509766 16.22273438 5.71484375 15.08984375 C5.26230225 14.12941162 4.80976074 13.16897949 4.34350586 12.17944336 C2.66579778 8.20910131 1.36302313 4.08906938 0 0 Z " fill="#DBDBDB" transform="translate(712,48)"/>
<path d="M0 0 C5.27226218 4.17008668 8.23185977 9.11459721 9.46875 15.69921875 C10.37249524 23.70968791 10.04187055 31.02517517 6.125 38.18359375 C-0.75562875 46.63693765 -0.75562875 46.63693765 -6.0625 47.87109375 C-12.37203279 47.76932709 -16.53694475 46.35058737 -21.0625 41.87109375 C-26.75901721 34.25799131 -27.9972484 26.13678729 -27.0625 16.87109375 C-25.1723508 9.29975747 -21.37704909 2.74745981 -14.8125 -1.62890625 C-9.71127431 -2.55640183 -4.6365023 -2.53778251 0 0 Z " fill="#F92858" transform="translate(126.0625,147.12890625)"/>
<path d="M0 0 C5.00471873 4.02431674 8.33294312 8.38345883 9.78125 14.68359375 C10.68847982 23.37787953 10.58985771 31.1878229 5.78125 38.68359375 C5.40742188 39.26753906 5.03359375 39.85148437 4.6484375 40.453125 C1.68616643 44.48456013 -1.47579027 46.2934159 -6.21875 47.68359375 C-12.51200633 47.57318574 -16.50117813 45.49196755 -20.85546875 40.9921875 C-26.24691254 34.53028755 -27.61649984 27.85387405 -27.03125 19.55859375 C-25.82063499 10.86665003 -23.13456264 5.27181736 -16.21875 -0.31640625 C-11.18380398 -3.49637215 -5.03879137 -2.9895646 0 0 Z " fill="#F92758" transform="translate(219.21875,147.31640625)"/>
<path d="" fill="#D9E9E4" transform="translate(0,0)"/>
</svg>
