<?xml version="1.0" encoding="UTF-8"?>
<svg version="1.1" xmlns="http://www.w3.org/2000/svg" width="557" height="557">
<path d="M0 0 C3.94826338 3.23412843 6.58981224 5.99440098 7.27734375 11.21484375 C7.36830838 17.64604333 6.83275216 21.47560128 2.94140625 26.6640625 C1.63253498 27.69587343 0.30301936 28.70292384 -1.05859375 29.6640625 C0.20666476 38.00938462 1.5318815 46.34186851 2.94140625 54.6640625 C4.11703125 54.6228125 5.29265625 54.5815625 6.50390625 54.5390625 C17.34609533 54.55613681 32.06991324 55.13811998 40.94140625 61.9765625 C44.85525202 67.23579275 46.31972073 71.48432949 46.62890625 78.0390625 C46.69464844 79.28429687 46.76039063 80.52953125 46.828125 81.8125 C46.86550781 82.75351563 46.90289062 83.69453125 46.94140625 84.6640625 C47.5537915 84.83131836 48.16617676 84.99857422 48.79711914 85.17089844 C54.94614704 86.92222245 60.62831778 89.13150052 66.37890625 91.9140625 C67.20729004 92.31246338 68.03567383 92.71086426 68.88916016 93.12133789 C82.76635297 99.90233156 95.62423484 109.13646119 106.94140625 119.6640625 C106.94140625 120.3240625 106.94140625 120.9840625 106.94140625 121.6640625 C107.51761719 121.90769531 108.09382813 122.15132813 108.6875 122.40234375 C115.74205765 126.35142888 120.87743546 134.73883322 125.62890625 141.1640625 C126.34941162 142.12916748 126.34941162 142.12916748 127.08447266 143.11376953 C129.71272094 146.71104152 131.61858968 150.11709106 133.37890625 154.2265625 C135.95478711 158.88474225 139.40277931 159.77486558 144.24829102 161.23608398 C146.05596 161.72183396 147.87183328 162.17821007 149.69506836 162.60180664 C155.15766663 163.89277928 158.43058805 164.99370802 161.94140625 169.6640625 C173.36211821 188.89297021 181.88637634 221.37988898 178.4609375 243.6640625 C176.48972284 251.25249788 170.13223754 254.65397479 163.94140625 258.6640625 C160.86568387 260.2859625 160.86568387 260.2859625 160.25292969 262.56494141 C160.1037207 263.33241699 159.95451172 264.09989258 159.80078125 264.890625 C159.62111816 265.74994629 159.44145508 266.60926758 159.25634766 267.49462891 C159.06991699 268.41679199 158.88348633 269.33895508 158.69140625 270.2890625 C152.49587038 298.36303361 135.79388319 321.37111877 111.79052734 337.09692383 C89.4054058 351.26131224 64.41494489 359.14569127 38.44140625 363.4765625 C36.58213501 363.78702515 36.58213501 363.78702515 34.68530273 364.10375977 C19.86750664 366.45760003 5.22431401 366.90448824 -9.74609375 366.9140625 C-11.17364487 366.91507462 -11.17364487 366.91507462 -12.6300354 366.91610718 C-27.96863941 366.89888527 -42.90868354 366.26455393 -58.05859375 363.6640625 C-59.0522998 363.49777344 -60.04600586 363.33148438 -61.06982422 363.16015625 C-82.44261883 359.46161144 -103.05542748 353.21661082 -122.05859375 342.6640625 C-123.09757812 342.11234375 -124.1365625 341.560625 -125.20703125 340.9921875 C-148.36089609 328.23021475 -168.05782415 307.25045482 -176.05859375 281.6640625 C-176.65904079 278.96564324 -177.17670727 276.25738967 -177.69702148 273.54248047 C-179.11873763 265.03249823 -179.11873763 265.03249823 -183.640625 257.9765625 C-186.38640007 256.32983261 -189.15359925 255.00079681 -192.05859375 253.6640625 C-195.92893708 250.33677402 -197.7485611 246.55013023 -199.05859375 241.6640625 C-199.59665661 220.67961103 -195.19485454 182.77876301 -180.24609375 167.0390625 C-174.5505885 162.94865418 -164.01848339 159.6640625 -157.05859375 159.6640625 C-156.84332031 159.00664062 -156.62804687 158.34921875 -156.40625 157.671875 C-154.57983548 153.59552956 -152.09296801 150.15995985 -149.49609375 146.5390625 C-148.96322754 145.79148682 -148.43036133 145.04391113 -147.88134766 144.27368164 C-138.65235103 131.43291815 -138.65235103 131.43291815 -134.05859375 126.6640625 C-133.39859375 126.6640625 -132.73859375 126.6640625 -132.05859375 126.6640625 C-131.80335938 126.07238281 -131.548125 125.48070312 -131.28515625 124.87109375 C-129.93303566 122.43813792 -128.56325918 121.12911193 -126.43359375 119.3515625 C-123.3117636 116.73142341 -123.3117636 116.73142341 -120.28125 114.0078125 C-108.36234152 102.94956918 -83.99089611 84.6640625 -67.05859375 84.6640625 C-67.0328125 83.74625 -67.00703125 82.8284375 -66.98046875 81.8828125 C-66.31991593 67.59085143 -66.31991593 67.59085143 -62.05859375 62.6640625 C-57.74380651 59.28372773 -54.11358048 57.94081505 -48.74609375 56.9765625 C-48.08528809 56.85627686 -47.42448242 56.73599121 -46.74365234 56.61206055 C-40.23418186 55.45540592 -33.91324579 54.61408712 -27.30078125 54.64453125 C-26.50269043 54.64735107 -25.70459961 54.6501709 -24.88232422 54.65307617 C-23.97957764 54.6585144 -23.97957764 54.6585144 -23.05859375 54.6640625 C-22.35736359 51.0832747 -21.67501795 47.4991408 -20.99609375 43.9140625 C-20.69735352 42.39039062 -20.69735352 42.39039062 -20.39257812 40.8359375 C-20.20888672 39.85625 -20.02519531 38.8765625 -19.8359375 37.8671875 C-19.66312256 36.96645508 -19.49030762 36.06572266 -19.31225586 35.13769531 C-19.05205793 32.60032725 -19.15071398 31.03574423 -20.05859375 28.6640625 C-21.70403155 26.97643399 -23.37147952 25.3100276 -25.05859375 23.6640625 C-27.8106444 19.19669261 -27.56712633 14.75746029 -27.05859375 9.6640625 C-25.29894233 4.48286666 -22.53043444 1.75995221 -18.05859375 -1.3359375 C-11.74435996 -4.07607669 -5.80212054 -3.76532301 0 0 Z M-48.05859375 127.6640625 C-48.82220215 127.87836914 -49.58581055 128.09267578 -50.37255859 128.31347656 C-70.44124433 134.03311444 -86.95293344 144.2471823 -102.05859375 158.6640625 C-102.60209473 159.17984863 -103.1455957 159.69563477 -103.70556641 160.22705078 C-124.3782147 180.28818277 -137.47179733 211.21918827 -138.359375 239.953125 C-138.37371529 242.06505909 -138.37759613 244.17708973 -138.37109375 246.2890625 C-138.38720703 247.34351563 -138.40332031 248.39796875 -138.41992188 249.484375 C-138.42833165 263.07457856 -133.63656385 275.61796867 -124.2734375 285.63671875 C-100.54082933 307.36021723 -67.31694617 315.79815812 -36.05859375 318.6640625 C-34.89070313 318.77492188 -33.7228125 318.88578125 -32.51953125 319 C9.5765886 322.39336914 62.31155886 319.02132412 96.71875 291.4375 C99.21429797 289.25342644 101.59672567 287.00874308 103.94140625 284.6640625 C104.60011719 284.00535156 105.25882813 283.34664062 105.9375 282.66796875 C117.53759676 270.26958576 118.50937932 256.4018364 118.25390625 240.2109375 C117.12325605 207.89318608 101.49895807 176.39785347 78.0546875 154.40234375 C64.12246665 141.88321662 47.04721577 132.42623366 28.94140625 127.6640625 C27.89364014 127.37208984 27.89364014 127.37208984 26.82470703 127.07421875 C3.57010669 120.82259766 -24.9531721 120.83072375 -48.05859375 127.6640625 Z " fill="#F92758" transform="translate(288.05859375,78.3359375)"/>
<path d="M0 0 C7.84938277 4.41914069 12.67060216 11.33807404 15.31640625 19.81640625 C18.3686335 32.07763916 16.80760395 43.74422717 10.77734375 54.890625 C7.30046298 60.1174084 2.30882919 65.17763506 -4 66.5625 C-10.15818553 67.43359894 -14.64321201 66.45589863 -19.9296875 63.16796875 C-27.15009355 57.56874821 -31.02154151 49.15177657 -32.5703125 40.3046875 C-33.76701751 28.92325901 -32.58412301 17.7296494 -25.53515625 8.39453125 C-18.7565381 0.30503529 -10.39112147 -4.4330029 0 0 Z " fill="#F92758" transform="translate(350,269.4375)"/>
<path d="M0 0 C7.05521491 4.85341966 10.26951231 12.51567143 12.328125 20.6015625 C14.45711199 32.17975204 13.1577896 43.46282347 7.078125 53.6640625 C3.38038617 58.98347917 -0.4234666 62.5187597 -6.671875 64.6015625 C-13.18661791 65.38538758 -18.32167806 64.47772559 -23.671875 60.6015625 C-30.97391823 53.99991934 -35.3104329 45.52684281 -35.91015625 35.6953125 C-36.20790212 23.57374738 -35.49558545 13.68866363 -27.359375 4.0390625 C-19.0648945 -4.4045018 -10.40467193 -5.71299471 0 0 Z " fill="#F92758" transform="translate(225.671875,271.3984375)"/>
<path d="" fill="#DBDFE0" transform="translate(0,0)"/>
<path d="" fill="#DEE3E6" transform="translate(0,0)"/>
<path d="" fill="#DADCDB" transform="translate(0,0)"/>
<path d="" fill="#DEDEDE" transform="translate(0,0)"/>
<path d="" fill="#DBDFE0" transform="translate(0,0)"/>
<path d="" fill="#DCE0DF" transform="translate(0,0)"/>
</svg>
